<?xml version="1.0" encoding="UTF-8"?>
<svg id="Layer_2" data-name="Layer 2" xmlns="http://www.w3.org/2000/svg" xmlns:xlink="http://www.w3.org/1999/xlink" width="177" height="24" viewBox="140 150 725 150">
  <defs>
    <style>
      .cls-1 {
        clip-path: url(#clippath);
      }

      .cls-2 {
        fill: none;
      }

      .cls-2, .cls-3 {
        stroke-width: 0px;
      }

      .cls-3 {
        fill: #fff;
      }
    </style>
    <clipPath id="clippath">
      <rect class="cls-2" width="1013.02" height="454.89"/>
    </clipPath>
  </defs>
  <g id="Layer_1-2" data-name="Layer 1">
    <g class="cls-1">
      <g>
        <path class="cls-3" d="M201.58,163.35c23.52,0,39.53,17.64,39.53,43.45v4.57h-58.64c1.31,9.96,9.31,18.29,22.71,18.29,7.35,0,16.01-2.94,21.07-7.84l9.15,13.39c-8,7.35-20.25,10.95-32.5,10.95-24.01,0-42.15-16.17-42.15-41.49,0-22.87,16.83-41.32,40.84-41.32h0ZM182.14,197.33h38.88c-.49-7.52-5.72-17.48-19.44-17.48-12.9,0-18.46,9.64-19.44,17.48Z"/>
        <path class="cls-3" d="M241.11,275.7h-80.37v14.03h80.37v-14.03Z"/>
        <path class="cls-3" d="M273.96,251.89c8.81,9.18,22.48,16.86,39.71,16.86,14.61,0,21.73-6.93,21.73-14.05,0-9.37-10.87-12.55-25.29-15.93-20.42-4.68-46.64-10.3-46.64-38.21,0-20.79,17.98-37.65,47.39-37.65,19.86,0,36.34,5.99,48.71,17.42l-14.8,19.48c-10.12-9.37-23.6-13.68-35.78-13.68s-18.36,5.25-18.36,12.74c0,8.43,10.49,11.05,24.92,14.42,20.6,4.68,46.83,10.86,46.83,38.59,0,22.85-16.3,40.09-50.01,40.09-23.98,0-41.21-8.06-53.01-19.86l14.61-20.23h-.01Z"/>
        <path class="cls-3" d="M465.98,237.28h-59v52.45h-26.6v-124.94h26.6v49.08h59v-49.08h26.79v124.94h-26.79v-52.45Z"/>
        <path class="cls-3" d="M596.93,268.19h-55.82l-7.87,21.54h-29.22l48.33-124.94h33.34l48.14,124.94h-29.04l-7.86-21.54ZM548.23,245.15h41.4l-20.61-57.32-20.79,57.32Z"/>
        <path class="cls-3" d="M691.55,244.96h-19.48v44.77h-26.6v-124.94h58.44c26.04,0,41.96,17.05,41.96,40.27s-13.86,33.91-27.35,37.09l28.1,47.58h-30.54l-24.54-44.77h.01ZM699.97,187.64h-27.91v34.46h27.91c10.68,0,18.73-6.74,18.73-17.23s-8.05-17.23-18.73-17.23Z"/>
        <path class="cls-3" d="M763.86,164.79h88.42v22.86h-61.82v27.16h60.51v22.86h-60.51v29.04h61.82v23.04h-88.42v-124.96Z"/>
      </g>
      <rect class="cls-2" x="-133.49" y="-412.56" width="1280" height="1280"/>
    </g>
  </g>
</svg>